<svg id="linkedin-footer" xmlns="http://www.w3.org/2000/svg" width="26.62" height="25.788" viewBox="0 0 26.62 25.788">
  <g id="Ellipse_476" data-name="Ellipse 476" fill="none" stroke="#fff" stroke-width="1">
    <ellipse cx="13.31" cy="12.894" rx="13.31" ry="12.894" stroke="none"/>
    <ellipse cx="13.31" cy="12.894" rx="12.81" ry="12.394" fill="none"/>
  </g>
  <g id="Group_105323" data-name="Group 105323" transform="translate(5.614 7)">
    <path id="Subtraction_1" data-name="Subtraction 1" d="M2487.881-12919.86a46.634,46.634,0,0,1-6.065-.324,1.952,1.952,0,0,1-1.373-1.373,20.274,20.274,0,0,1-.325-3.735,20.266,20.266,0,0,1,.325-3.734,1.952,1.952,0,0,1,1.373-1.373,46.632,46.632,0,0,1,6.065-.324,46.588,46.588,0,0,1,6.062.324,1.944,1.944,0,0,1,1.373,1.373,20.281,20.281,0,0,1,.324,3.734,20.29,20.29,0,0,1-.324,3.735,1.944,1.944,0,0,1-1.373,1.373A46.59,46.59,0,0,1,2487.881-12919.86Zm-1.554-7.759h0v4.653l4.031-2.327-4.031-2.326Z" transform="translate(-2480.12 12930.725)" fill="#fff"/>
  </g>
</svg>
